<?xml version="1.0" encoding="UTF-8"?>
<svg id="katman_1" xmlns="http://www.w3.org/2000/svg" xmlns:xlink="http://www.w3.org/1999/xlink" viewBox="0 0 429.24 295.66">
  <defs>
    <style>
      .cls-1 {
        fill: url(#linear-gradient-2);
      }

      .cls-2 {
        fill: #ca9e67;
      }

      .cls-3 {
        fill: #009fe3;
      }

      .cls-4 {
        fill: #683c11;
      }

      .cls-5 {
        fill: url(#linear-gradient);
      }
    </style>
    <linearGradient id="linear-gradient" x1="309.32" y1="-44.79" x2="527.87" y2="-44.79" gradientTransform="translate(-252.55 114.21) rotate(-3.59) scale(1 .87)" gradientUnits="userSpaceOnUse">
      <stop offset="0" stop-color="#ca9e67"/>
      <stop offset="1" stop-color="#683c11"/>
    </linearGradient>
    <linearGradient id="linear-gradient-2" x1="544.46" y1="-57.8" x2="518.58" y2="6.27" xlink:href="#linear-gradient"/>
  </defs>
  <g>
    <path class="cls-4" d="M116.49,102.64h-29.39v46.11c-8.51-4.87-18.35-7.66-28.86-7.66-32.15,0-58.23,26.07-58.23,58.23,0,25.92,16.94,47.86,40.33,55.43l6.56-29.32c-10.07-4.38-17.12-14.42-17.12-26.11,0-15.72,12.74-28.46,28.46-28.46s28.48,12.74,28.48,28.46c0,11.69-7.05,21.73-17.12,26.11l6.56,29.32c23.4-7.56,40.34-29.5,40.34-55.43,0-.88-.04-1.76-.07-2.64h.07v-94.03Z"/>
    <path class="cls-4" d="M211.99,209.35c.94-4.14,1.44-8.44,1.44-12.85,0-5.74-.84-11.28-2.39-16.52-7.12-24.13-29.42-41.72-55.84-41.72-32.17,0-58.24,26.08-58.24,58.25s26.07,58.23,58.24,58.23c23.97,0,44.54-14.5,53.47-35.2h-37.15c-4.61,3.27-10.23,5.21-16.31,5.21-15.6,0-28.24-12.65-28.24-28.24s12.64-28.24,28.24-28.24c9.42,0,17.76,4.61,22.89,11.72h-53.1c-7.71,0-10.02,29.37,2.24,29.37h84.76Z"/>
    <path class="cls-2" d="M332.29,102.64h-29.38v46.11c-8.51-4.87-18.36-7.66-28.86-7.66-32.16,0-58.24,26.07-58.24,58.23,0,25.92,16.94,47.86,40.34,55.43l6.55-29.32c-10.07-4.38-17.12-14.42-17.12-26.11,0-15.72,12.75-28.46,28.47-28.46s28.47,12.74,28.47,28.46c0,11.69-7.05,21.73-17.12,26.11l6.54,29.32c23.41-7.56,40.34-29.5,40.34-55.43,0-.88-.02-1.76-.06-2.64h.06v-94.03Z"/>
    <path class="cls-2" d="M427.8,209.35c.93-4.14,1.45-8.44,1.45-12.85,0-5.74-.85-11.28-2.41-16.52-7.12-24.13-29.42-41.72-55.83-41.72-32.17,0-58.24,26.08-58.24,58.25s26.07,58.23,58.24,58.23c23.97,0,44.53-14.5,53.48-35.2h-37.16c-4.6,3.27-10.23,5.21-16.31,5.21-15.61,0-28.25-12.65-28.25-28.24s12.63-28.24,28.25-28.24c9.42,0,17.76,4.61,22.9,11.72h-56.88c3.37,4.63-1.91,10.34-1.91,16.52,0,4.62,6.14,9,4.16,12.85h88.51Z"/>
  </g>
  <g>
    <path class="cls-5" d="M271.83,42.2s-75.48,1.01-205.72,59.78c-7.68,3.46-12.78,1.87-6.96-3.29C64.95,93.52,180.72,0,180.72,0l91.11,42.2Z"/>
    <path class="cls-1" d="M180.72,0l161.05,50.58,32.18,62.4s-2.7,6.03-11.62.73C353.39,108.43,180.72,0,180.72,0Z"/>
  </g>
  <g>
    <path class="cls-3" d="M29,268.79c-2.13-.21-3.09-.3-5.28-.3-3,0-6.21,1.68-6.21,8.23v3.73c0,5.68,2.4,8.19,6.21,8.19,2.55,0,4.08-.21,4.56-.27v-9.55c0-.33.21-.57.51-.57h.3c.3,0,.51.24.51.57v10.12c0,.3-.24.54-.51.57-1.44.18-2.82.39-5.37.39-4.27,0-7.54-2.82-7.54-9.46v-3.73c0-7.51,4.02-9.46,7.54-9.46,2.7,0,4.11.15,5.41.3.27.03.51.12.51.48v.3c0,.39-.18.51-.63.45Z"/>
    <path class="cls-3" d="M43.96,289.72h-.15c-.33,0-.6-.27-.6-.6v-.75c-1.47.81-3.24,1.53-5.1,1.53-2.25,0-4.6-1.08-4.6-4.84v-.39c0-3.09,1.95-4.62,7.42-4.62h2.31v-1.08c0-3.13-.87-4.36-3.79-4.36-1.98,0-2.85.12-4.26.27-.3.03-.69,0-.69-.45v-.18c0-.39.24-.48.69-.54,1.26-.15,2.28-.27,4.26-.27,4.05,0,5.11,2.29,5.11,5.53v10.15c0,.33-.27.6-.6.6ZM43.24,281.22h-2.31c-4.54,0-6.09.9-6.09,3.45v.39c0,2.79,1.47,3.66,3.27,3.66,1.68,0,3.12-.45,5.13-1.53v-5.98Z"/>
    <path class="cls-3" d="M54.51,291.4c-.93,3.22-2.07,4.18-4.87,4.18-.69,0-1.32-.09-1.86-.18-.36-.06-.6-.12-.6-.42v-.33c0-.36.15-.48.63-.42.45.06,1.47.18,1.95.18,2.16,0,2.86-.66,3.57-3.27l.39-1.41h-.42c-.93,0-1.41-.24-1.83-1.68l-4.05-13.73c-.12-.39,0-.72.48-.72h.27c.33,0,.42.21.48.42l4.05,13.82c.18.63.45.66.69.66h.69l4.11-14.5c.06-.21.15-.39.54-.39h.27c.48,0,.54.36.42.75l-4.93,17.05Z"/>
    <path class="cls-3" d="M68.21,274.61c-1.14,0-2.4.27-4.18,1.38v13.15c0,.3-.27.57-.57.57h-.18c-.3,0-.57-.27-.57-.57v-14.95c0-.33.21-.6.54-.6h.24c.33,0,.54.27.54.6v.63c1.53-.99,2.7-1.38,4.18-1.38.48,0,.81.09.81.45v.24c0,.39-.33.48-.81.48Z"/>
    <path class="cls-3" d="M73.03,270.62h-.18c-.3,0-.57-.24-.57-.57v-2.22c0-.3.27-.57.57-.57h.18c.3,0,.57.27.57.57v2.22c0,.33-.27.57-.57.57ZM73.03,289.9h-.18c-.3,0-.57-.27-.57-.57v-15.16c0-.3.27-.57.57-.57h.18c.3,0,.57.27.57.57v15.16c0,.3-.27.57-.57.57Z"/>
    <path class="cls-3" d="M95.78,289.72h-.3c-.33,0-.51-.27-.51-.57v-10.75c0-2.85-1.32-3.79-3.51-3.79-1.32,0-2.82.42-4.05,1.02.27.69.45,1.56.45,2.64v10.87c0,.3-.12.57-.45.57h-.45c-.3,0-.42-.27-.42-.57v-10.87c0-2.79-1.23-3.66-2.82-3.66-1.33,0-2.91.6-4.3,1.26v13.27c0,.3-.15.57-.45.57h-.42c-.3,0-.45-.27-.45-.57v-14.95c0-.33.21-.6.54-.6h.24c.33,0,.54.27.54.6v.54c1.24-.6,2.97-1.29,4.57-1.29,1.08,0,2.1.33,2.85,1.24,1.5-.72,3.24-1.24,4.84-1.24,2.52,0,4.62,1.38,4.62,4.96v10.75c0,.3-.18.57-.51.57Z"/>
    <path class="cls-3" d="M111.49,281.97h-10.15v.63c0,5.05,2.43,6.12,5.44,6.12,1.32,0,2.97-.21,4.44-.51.3-.06.63,0,.63.39v.21c0,.33-.12.48-.57.57-1.44.3-3.16.51-4.5.51-3.73,0-6.76-1.62-6.76-7.3v-1.98c0-4.14,2.1-7.18,6.07-7.18s5.97,2.88,5.97,7.15v.81c0,.33-.27.57-.57.57ZM110.74,280.59c0-3.79-1.26-5.98-4.65-5.98s-4.75,2.43-4.75,6.01v.15h9.4v-.18Z"/>
    <path class="cls-3" d="M126.66,289.72h-.21c-.3,0-.54-.27-.54-.57v-9.97c0-3.43-1.8-4.57-4.05-4.57-1.53,0-3.24.51-4.75,1.23v13.3c0,.3-.27.57-.57.57h-.18c-.3,0-.57-.27-.57-.57v-14.95c0-.33.21-.6.54-.6h.24c.33,0,.54.27.54.6v.48c1.56-.75,3.27-1.24,4.84-1.24,2.88,0,5.28,1.56,5.28,5.74v9.97c0,.3-.24.57-.57.57Z"/>
    <path class="cls-3" d="M140.9,289.9c-.36,0-.6-.06-.9-.36l-7.27-7.78v7.57c0,.3-.27.57-.57.57h-.18c-.3,0-.57-.27-.57-.57v-21.35c0-.3.27-.57.57-.57h.18c.3,0,.57.27.57.57v12.64l7.39-6.91c.21-.18.48-.27.72-.27.57,0,.81.63.39.99l-7.36,6.73,7.39,7.81c.36.39.21.93-.36.93Z"/>
    <path class="cls-3" d="M145.3,273.6h.21c.3,0,.54.27.54.57v9.97c0,3.42,1.81,4.57,4.05,4.57,1.53,0,3.24-.54,4.75-1.24v-13.3c0-.3.27-.57.57-.57h.18c.3,0,.57.27.57.57v14.95c0,.33-.21.6-.54.6h-.24c-.33,0-.54-.27-.54-.6v-.48c-1.56.75-3.27,1.23-4.84,1.23-2.88,0-5.28-1.59-5.28-5.73v-9.97c0-.3.24-.57.57-.57Z"/>
    <path class="cls-3" d="M161.46,289.9h-.3c-.3,0-.51-.27-.51-.57v-21.35c0-.3.21-.57.51-.57h.3c.3,0,.51.27.51.57v21.35c0,.3-.21.57-.51.57Z"/>
    <path class="cls-3" d="M181.13,278.7c-.51,1.11-.96,1.56-1.41,1.74v8.71c0,.3-.21.57-.51.57h-.3c-.3,0-.51-.27-.51-.57v-8.71c-.45-.18-.9-.63-1.41-1.74l-4.75-10.48c-.24-.54-.03-.81.42-.81h.3c.18,0,.39.18.48.36l4.71,10.51c.39.87.54,1.05.9,1.05s.51-.18.9-1.05l4.71-10.51c.09-.18.3-.36.48-.36h.3c.45,0,.66.27.42.81l-4.75,10.48Z"/>
    <path class="cls-3" d="M196.74,289.72h-.15c-.33,0-.6-.27-.6-.6v-.75c-1.47.81-3.24,1.53-5.1,1.53-2.25,0-4.6-1.08-4.6-4.84v-.39c0-3.09,1.95-4.62,7.42-4.62h2.31v-1.08c0-3.13-.87-4.36-3.78-4.36-1.99,0-2.86.12-4.27.27-.3.03-.69,0-.69-.45v-.18c0-.39.24-.48.69-.54,1.26-.15,2.28-.27,4.27-.27,4.05,0,5.1,2.29,5.1,5.53v10.15c0,.33-.27.6-.6.6ZM196.01,281.22h-2.31c-4.54,0-6.09.9-6.09,3.45v.39c0,2.79,1.47,3.66,3.27,3.66,1.68,0,3.12-.45,5.13-1.53v-5.98Z"/>
    <path class="cls-3" d="M208.51,289.81c-.45.06-1.05.09-1.56.09-2.13,0-3.39-.66-3.39-3.24v-11.83h-2.97c-.33,0-.58-.18-.58-.48v-.3c0-.3.24-.45.58-.45h2.97v-3.09c0-.3.18-.57.51-.57h.33c.3,0,.48.27.48.57v3.09h3.57c.33,0,.57.15.57.45v.3c0,.3-.24.48-.57.48h-3.57v11.83c0,1.8.75,2.07,2.07,2.07h1.44c.45,0,.63.15.63.42v.18c0,.24-.09.42-.51.48Z"/>
    <path class="cls-3" d="M213.37,289.72h-.18c-.3,0-.57-.27-.57-.57v-14.98c0-.3.27-.57.57-.57h.18c.3,0,.57.27.57.57v14.98c0,.3-.27.57-.57.57Z"/>
    <path class="cls-3" d="M223.93,274.61c-1.14,0-2.4.27-4.18,1.38v13.15c0,.3-.27.57-.57.57h-.18c-.3,0-.57-.27-.57-.57v-14.95c0-.33.21-.6.54-.6h.24c.33,0,.54.27.54.6v.63c1.53-.99,2.7-1.38,4.18-1.38.48,0,.81.09.81.45v.24c0,.39-.33.48-.81.48Z"/>
    <path class="cls-3" d="M228.75,289.72h-.18c-.3,0-.57-.27-.57-.57v-14.98c0-.3.27-.57.57-.57h.18c.3,0,.57.27.57.57v14.98c0,.3-.27.57-.57.57Z"/>
    <path class="cls-3" d="M251.5,289.72h-.3c-.33,0-.51-.27-.51-.57v-10.75c0-2.85-1.32-3.79-3.51-3.79-1.32,0-2.82.42-4.05,1.02.27.69.45,1.56.45,2.64v10.87c0,.3-.12.57-.45.57h-.45c-.3,0-.42-.27-.42-.57v-10.87c0-2.79-1.23-3.66-2.82-3.66-1.33,0-2.91.6-4.29,1.26v13.27c0,.3-.15.57-.45.57h-.42c-.3,0-.45-.27-.45-.57v-14.95c0-.33.21-.6.54-.6h.24c.33,0,.54.27.54.6v.54c1.24-.6,2.97-1.29,4.56-1.29,1.08,0,2.1.33,2.85,1.24,1.5-.72,3.24-1.24,4.84-1.24,2.52,0,4.62,1.38,4.62,4.96v10.75c0,.3-.18.57-.51.57Z"/>
    <path class="cls-3" d="M268.36,289.9c-2.4,0-4.05-.09-4.92-.24-.27-.06-.51-.3-.51-.57v-21.02c0-.27.24-.51.51-.57.87-.15,2.52-.24,4.92-.24,5.11,0,8.77,2.43,8.77,9.46v3.73c0,6.91-3.66,9.46-8.77,9.46ZM275.81,276.72c0-6.39-3.24-8.28-7.45-8.28-1.74,0-2.79.09-4.11.18v20c1.33.09,2.38.12,4.11.12,4.21,0,7.45-1.95,7.45-8.28v-3.73Z"/>
    <path class="cls-3" d="M290.86,289.72h-.15c-.33,0-.6-.27-.6-.6v-.75c-1.47.81-3.24,1.53-5.1,1.53-2.25,0-4.6-1.08-4.6-4.84v-.39c0-3.09,1.95-4.62,7.42-4.62h2.31v-1.08c0-3.13-.87-4.36-3.78-4.36-1.99,0-2.86.12-4.27.27-.3.03-.69,0-.69-.45v-.18c0-.39.24-.48.69-.54,1.26-.15,2.28-.27,4.27-.27,4.05,0,5.1,2.29,5.1,5.53v10.15c0,.33-.27.6-.6.6ZM290.13,281.22h-2.31c-4.54,0-6.09.9-6.09,3.45v.39c0,2.79,1.47,3.66,3.27,3.66,1.68,0,3.12-.45,5.13-1.53v-5.98Z"/>
    <path class="cls-3" d="M306.51,289.72h-.21c-.3,0-.54-.27-.54-.57v-9.97c0-3.43-1.8-4.57-4.05-4.57-1.53,0-3.24.51-4.75,1.23v13.3c0,.3-.27.57-.57.57h-.18c-.3,0-.57-.27-.57-.57v-14.95c0-.33.21-.6.54-.6h.24c.33,0,.54.27.54.6v.48c1.56-.75,3.27-1.24,4.84-1.24,2.88,0,5.28,1.56,5.28,5.74v9.97c0,.3-.24.57-.57.57Z"/>
    <path class="cls-3" d="M312.31,289.72h-.18c-.3,0-.57-.27-.57-.57v-14.98c0-.3.27-.57.57-.57h.18c.3,0,.57.27.57.57v14.98c0,.3-.27.57-.57.57Z"/>
    <path class="cls-3" d="M321.8,289.9c-1.35,0-3.27-.21-4.36-.42-.42-.09-.66-.21-.66-.48v-.33c0-.36.3-.48.66-.42,1.45.24,3.18.48,4.42.48,2.16,0,3.81-.57,3.81-3,0-1.24-.66-1.9-3.18-3.27l-1.92-1.05c-2.25-1.24-3.63-2.22-3.63-4.27,0-2.79,2.22-3.7,4.59-3.7,2.16,0,3.27.15,4.29.27.42.06.63.24.63.51v.24c0,.39-.3.51-.63.48-.78-.09-2.52-.33-4.17-.33-1.92,0-3.39.39-3.39,2.52,0,1.32,1.08,2.1,2.91,3.12l2.01,1.11c2.49,1.38,3.81,2.37,3.81,4.36,0,3.21-2.4,4.17-5.2,4.17ZM322.64,291.82l-2.73,3.24c-.27.33-.36.51-.66.51h-.66c-.18,0-.27-.09-.27-.21,0-.09.03-.21.12-.3l2.52-3.24c.27-.33.39-.45.69-.45h.78c.21,0,.33.06.33.21,0,.06-.03.15-.12.24Z"/>
    <path class="cls-3" d="M348.26,289.72h-.3c-.33,0-.51-.27-.51-.57v-10.75c0-2.85-1.32-3.79-3.51-3.79-1.32,0-2.82.42-4.05,1.02.27.69.45,1.56.45,2.64v10.87c0,.3-.12.57-.45.57h-.45c-.3,0-.42-.27-.42-.57v-10.87c0-2.79-1.23-3.66-2.82-3.66-1.33,0-2.91.6-4.3,1.26v13.27c0,.3-.15.57-.45.57h-.42c-.3,0-.45-.27-.45-.57v-14.95c0-.33.21-.6.54-.6h.24c.33,0,.54.27.54.6v.54c1.24-.6,2.97-1.29,4.57-1.29,1.08,0,2.1.33,2.85,1.24,1.5-.72,3.24-1.24,4.84-1.24,2.52,0,4.62,1.38,4.62,4.96v10.75c0,.3-.18.57-.51.57Z"/>
    <path class="cls-3" d="M362.8,289.72h-.15c-.33,0-.6-.27-.6-.6v-.75c-1.47.81-3.24,1.53-5.1,1.53-2.25,0-4.6-1.08-4.6-4.84v-.39c0-3.09,1.95-4.62,7.42-4.62h2.31v-1.08c0-3.13-.87-4.36-3.78-4.36-1.99,0-2.86.12-4.27.27-.3.03-.69,0-.69-.45v-.18c0-.39.24-.48.69-.54,1.26-.15,2.28-.27,4.27-.27,4.05,0,5.1,2.29,5.1,5.53v10.15c0,.33-.27.6-.6.6ZM362.07,281.22h-2.31c-4.54,0-6.09.9-6.09,3.45v.39c0,2.79,1.47,3.66,3.27,3.66,1.68,0,3.12-.45,5.13-1.53v-5.98Z"/>
    <path class="cls-3" d="M378.45,289.72h-.21c-.3,0-.54-.27-.54-.57v-9.97c0-3.43-1.8-4.57-4.05-4.57-1.53,0-3.24.51-4.75,1.23v13.3c0,.3-.27.57-.57.57h-.18c-.3,0-.57-.27-.57-.57v-14.95c0-.33.21-.6.54-.6h.24c.33,0,.54.27.54.6v.48c1.56-.75,3.27-1.24,4.84-1.24,2.88,0,5.28,1.56,5.28,5.74v9.97c0,.3-.24.57-.57.57Z"/>
    <path class="cls-3" d="M384.32,289.9h-.3c-.3,0-.51-.27-.51-.57v-21.35c0-.3.21-.57.51-.57h.3c.3,0,.51.27.51.57v21.35c0,.3-.21.57-.51.57Z"/>
    <path class="cls-3" d="M390.37,289.72h-.18c-.3,0-.57-.27-.57-.57v-14.98c0-.3.27-.57.57-.57h.18c.3,0,.57.27.57.57v14.98c0,.3-.27.57-.57.57Z"/>
    <path class="cls-3" d="M407.45,274.88h-1.56c.6.48,1.65,1.53,1.65,3.73v.24c0,2.85-1.5,4.89-6.21,4.89-1.56,0-2.56-.24-3.66-.69-.63.27-1.02.69-1.02,1.29,0,.39.18.75.87.93l5.4,1.41c3.22.84,4.8,1.62,4.8,4.05v.27c0,2.7-1.62,4.65-6.36,4.65s-6.37-1.92-6.37-4.65v-.27c0-2.1,1.26-3.72,2.25-4.32l-.21-.06c-1.11-.33-1.59-1.11-1.59-2.01,0-.72.39-1.53,1.26-1.92-.99-.81-1.56-1.98-1.56-3.57v-.24c0-2.31,1.05-5.02,6.19-5.02h6.12c.3,0,.57.18.57.48v.33c0,.33-.27.48-.57.48ZM406.4,290.74c0-1.68-.63-2.1-3.79-2.91l-4.14-1.08c-1.33.87-2.2,1.98-2.2,3.99v.27c0,2.16,1.24,3.54,5.08,3.54s5.04-1.33,5.04-3.54v-.27ZM406.25,278.61c0-2.16-1.02-3.88-4.93-3.88-4.14,0-4.87,1.95-4.87,3.88v.24c0,1.5.75,3.75,4.87,3.75s4.93-1.68,4.93-3.75v-.24ZM397.09,266.66c0-.21.06-.3.3-.3h.66c.21,0,.24.09.24.3,0,2.67,1.59,3.33,3.07,3.33s3.06-.66,3.06-3.33c0-.21.03-.3.24-.3h.66c.24,0,.3.09.3.3,0,2.88-1.74,4.5-4.26,4.5s-4.27-1.62-4.27-4.5Z"/>
    <path class="cls-3" d="M412.5,289.72h-.18c-.3,0-.57-.27-.57-.57v-14.98c0-.3.27-.57.57-.57h.18c.3,0,.57.27.57.57v14.98c0,.3-.27.57-.57.57Z"/>
  </g>
</svg>