<?xml version="1.0" encoding="UTF-8"?>
<svg id="katman_1" xmlns="http://www.w3.org/2000/svg" xmlns:xlink="http://www.w3.org/1999/xlink" viewBox="0 0 429.24 254.75">
  <defs>
    <style>
      .cls-1 {
        fill: url(#Adsız_degrade);
      }

      .cls-2 {
        fill: #ca9e67;
      }

      .cls-3 {
        fill: url(#Adsız_degrade_2);
      }

      .cls-4 {
        fill: #683c11;
      }
    </style>
    <linearGradient id="Adsız_degrade" data-name="Adsız degrade" x1="282.45" y1="200.28" x2="501" y2="200.28" gradientTransform="translate(-217.27 247.66) rotate(-3.59) scale(1 -.87)" gradientUnits="userSpaceOnUse">
      <stop offset="0" stop-color="#ca9e67"/>
      <stop offset="1" stop-color="#683c11"/>
    </linearGradient>
    <linearGradient id="Adsız_degrade_2" data-name="Adsız degrade 2" x1="517.6" y1="213.43" x2="491.72" y2="149.36" gradientTransform="translate(-217.27 247.66) rotate(-3.59) scale(1 -.87)" gradientUnits="userSpaceOnUse">
      <stop offset="0" stop-color="#ca9e67"/>
      <stop offset="1" stop-color="#683c11"/>
    </linearGradient>
  </defs>
  <g>
    <path class="cls-4" d="M116.48,102.64h-29.39v46.11c-8.51-4.87-18.35-7.66-28.86-7.66-32.15,0-58.23,26.07-58.23,58.23,0,25.92,16.94,47.86,40.33,55.43l6.56-29.32c-10.07-4.38-17.12-14.42-17.12-26.11,0-15.72,12.74-28.46,28.46-28.46s28.48,12.74,28.48,28.46c0,11.69-7.05,21.73-17.12,26.11l6.56,29.32c23.4-7.56,40.34-29.5,40.34-55.43,0-.88-.04-1.76-.07-2.64h.07v-94.03h-.01Z"/>
    <path class="cls-4" d="M211.98,209.35c.94-4.14,1.44-8.44,1.44-12.85,0-5.74-.84-11.28-2.39-16.52-7.12-24.13-29.42-41.72-55.84-41.72-32.17,0-58.24,26.08-58.24,58.25s26.07,58.23,58.24,58.23c23.97,0,44.54-14.5,53.47-35.2h-37.15c-4.61,3.27-10.23,5.21-16.31,5.21-15.6,0-28.24-12.65-28.24-28.24s12.64-28.24,28.24-28.24c9.42,0,17.76,4.61,22.89,11.72h-53.1c-7.71,0-10.02,29.37,2.24,29.37h84.76-.01Z"/>
    <path class="cls-2" d="M332.28,102.64h-29.38v46.11c-8.51-4.87-18.36-7.66-28.86-7.66-32.16,0-58.24,26.07-58.24,58.23,0,25.92,16.94,47.86,40.34,55.43l6.55-29.32c-10.07-4.38-17.12-14.42-17.12-26.11,0-15.72,12.75-28.46,28.47-28.46s28.47,12.74,28.47,28.46c0,11.69-7.05,21.73-17.12,26.11l6.54,29.32c23.41-7.56,40.34-29.5,40.34-55.43,0-.88-.02-1.76-.06-2.64h.06v-94.03h.01Z"/>
    <path class="cls-2" d="M427.79,209.35c.93-4.14,1.45-8.44,1.45-12.85,0-5.74-.85-11.28-2.41-16.52-7.12-24.13-29.42-41.72-55.83-41.72-32.17,0-58.24,26.08-58.24,58.25s26.07,58.23,58.24,58.23c23.97,0,44.53-14.5,53.48-35.2h-37.16c-4.6,3.27-10.23,5.21-16.31,5.21-15.61,0-28.25-12.65-28.25-28.24s12.63-28.24,28.25-28.24c9.42,0,17.76,4.61,22.9,11.72h-56.88c3.37,4.63-1.91,10.34-1.91,16.52,0,4.62,6.14,9,4.16,12.85h88.51,0Z"/>
  </g>
  <g>
    <path class="cls-1" d="M271.82,42.2s-75.48,1.01-205.72,59.78c-7.68,3.46-12.78,1.87-6.96-3.29C64.94,93.52,180.71,0,180.71,0l91.11,42.2h0Z"/>
    <path class="cls-3" d="M180.71,0l161.05,50.58,32.18,62.4s-2.7,6.03-11.62.73C353.38,108.43,180.71,0,180.71,0Z"/>
  </g>
</svg>